<svg width="60" height="60" viewBox="0 0 60 60" fill="none" xmlns="http://www.w3.org/2000/svg">
<path d="M30 0C21.036 0 13.764 7.272 13.764 16.236C13.764 18.288 14.148 20.256 14.844 22.068C22.776 45.216 30 60 30 60C30 60 37.224 45.228 45.156 22.068C45.852 20.256 46.236 18.288 46.236 16.236C46.236 7.272 38.964 0 30 0ZM30 23.364C26.22 23.364 23.172 20.304 23.172 16.536C23.172 12.756 26.232 9.708 30 9.708C33.78 9.708 36.828 12.768 36.828 16.536C36.828 20.304 33.78 23.364 30 23.364Z" fill="#7157E2"/>
</svg>
